<?xml version="1.0" encoding="iso-8859-1"?>
<svg version="1.1" id="&#x421;&#x43B;&#x43E;&#x439;_1"
	 xmlns="http://www.w3.org/2000/svg" xmlns:xlink="http://www.w3.org/1999/xlink" x="0px" y="0px" viewBox="0 0 232.3 166.591"
	 style="enable-background:new 0 0 232.3 166.591;" xml:space="preserve">
<g>
	<g>
		<rect x="0" y="164.964" style="fill:#494949;" width="232.3" height="1.627"/>
	</g>
	<g>
		<polygon style="fill:#494949;" points="221.162,165.425 219.535,165.425 219.535,30.111 12.766,30.111 12.766,165.425 
			11.139,165.425 11.139,28.483 221.162,28.483 		"/>
	</g>
	<g>
		<path style="fill:#494949;" d="M29.624,161.46h-11.24v-16.218h11.24V161.46z M20.01,159.833h7.986V146.87H20.01V159.833z"/>
	</g>
	<g>
		<path style="fill:#494949;" d="M42.241,161.46h-11.24v-16.218h11.24V161.46z M32.628,159.833h7.986V146.87h-7.986V159.833z"/>
	</g>
	<g>
		<g>
			<path style="fill:#494949;" d="M62.836,161.46h-11.24v-16.218h11.24V161.46z M53.223,159.833h7.986V146.87h-7.986V159.833z"/>
		</g>
		<g>
			<path style="fill:#494949;" d="M76.355,161.46h-11.24v-16.218h11.24V161.46z M66.742,159.833h7.986V146.87h-7.986V159.833z"/>
		</g>
	</g>
	<g>
		<path style="fill:#494949;" d="M93.995,157.619H86.15v-8.536h7.845V157.619z M87.777,155.992h4.591v-5.282h-4.591V155.992z"/>
	</g>
	<g>
		<path style="fill:#494949;" d="M214.395,161.46h-11.24v-16.218h11.24V161.46z M204.782,159.833h7.986V146.87h-7.986V159.833z"/>
	</g>
	<g>
		<path style="fill:#494949;" d="M201.777,161.46h-11.24v-16.218h11.24V161.46z M192.164,159.833h7.986V146.87h-7.986V159.833z"/>
	</g>
	<g>
		<path style="fill:#494949;" d="M179.246,161.46h-11.24v-16.218h11.24V161.46z M169.633,159.833h7.986V146.87h-7.986V159.833z"/>
	</g>
	<g>
		<path style="fill:#494949;" d="M165.728,161.46h-11.24v-16.218h11.24V161.46z M156.114,159.833h7.986V146.87h-7.986V159.833z"/>
	</g>
	<g>
		<path style="fill:#494949;" d="M150.023,157.619h-11.24v-8.536h11.24V157.619z M140.41,155.992h7.986v-5.282h-7.986V155.992z"/>
	</g>
	<g>
		<line style="fill:#F3F3F3;" x1="97.705" y1="140.904" x2="8.491" y2="140.904"/>
		<rect x="8.491" y="140.09" style="fill:#494949;" width="89.214" height="1.627"/>
	</g>
	<g>
		<line style="fill:#F3F3F3;" x1="223.81" y1="140.904" x2="134.278" y2="140.904"/>
		<rect x="134.277" y="140.09" style="fill:#494949;" width="89.532" height="1.627"/>
	</g>
	<g>
		<rect x="105.506" y="140.206" style="fill:#494949;" width="21.288" height="25.219"/>
	</g>
	<g>
		<rect x="11.953" y="28.483" style="fill:#494949;" width="208.396" height="1.627"/>
	</g>
	<g>
		<rect x="9.492" y="26.215" style="fill:#494949;" width="213.317" height="1.627"/>
	</g>
	<g>
		<path style="fill:none;stroke:#494949;stroke-width:2;stroke-miterlimit:10;" d="M8.727,32.021"/>
	</g>
	<g>
		<rect x="8.817" y="21.332" style="fill:#494949;" width="214.666" height="1.627"/>
	</g>
	<g>
		<path style="fill:#494949;" d="M134.866,22.744c-4.384-4.018-11.38-6.416-18.715-6.416c-7.335,0-14.332,2.398-18.715,6.416
			l-1.099-1.2c4.745-4.349,11.968-6.843,19.815-6.843c7.847,0,15.069,2.495,19.815,6.843L134.866,22.744z"/>
	</g>
	<g>
		<path style="fill:#494949;" d="M91.433,22.685l-1.216-1.08c6.198-6.972,15.651-10.971,25.934-10.971
			c10.283,0,19.736,3.998,25.934,10.971l-1.216,1.08c-5.89-6.624-14.899-10.424-24.718-10.424
			C106.332,12.261,97.322,16.061,91.433,22.685z"/>
	</g>
	<g>
		<polygon style="fill:#494949;" points="103.363,165.425 101.736,165.425 101.736,109.744 98.519,109.744 98.519,165.425 
			96.891,165.425 96.891,108.117 103.363,108.117 		"/>
	</g>
	<g>
		<polygon style="fill:#494949;" points="135.091,165.425 133.463,165.425 133.463,109.744 130.246,109.744 130.246,165.425 
			128.619,165.425 128.619,108.117 135.091,108.117 		"/>
	</g>
	<g>
		<path style="fill:#494949;" d="M127.608,137.981h-22.915v-8.333h22.915V137.981z M106.32,136.354h19.661v-5.079H106.32V136.354z"
			/>
	</g>
	<g>
		<path style="fill:#494949;" d="M130.246,128.014h-28.51v-13.58h28.51V128.014z M103.363,126.387h25.255v-10.325h-25.255V126.387z"
			/>
	</g>
	<g>
		<g>
			<rect x="109.642" y="115.248" style="fill:#494949;" width="1.627" height="11.953"/>
		</g>
		<g>
			<rect x="121.031" y="115.248" style="fill:#494949;" width="1.627" height="11.953"/>
		</g>
	</g>
	<g>
		<polygon style="fill:#494949;" points="125.47,115.248 123.843,115.248 123.843,111.859 108.25,111.859 108.25,115.248 
			106.623,115.248 106.623,110.232 125.47,110.232 		"/>
	</g>
	<g>
		<rect x="102.55" y="112.333" style="fill:#494949;" width="4.887" height="1.627"/>
	</g>
	<g>
		<rect x="124.656" y="112.333" style="fill:#494949;" width="4.776" height="1.627"/>
	</g>
	<g>
		<rect x="102.55" y="118.302" style="fill:#494949;" width="26.882" height="1.627"/>
	</g>
	<g>
		<rect x="102.605" y="122.638" style="fill:#494949;" width="26.882" height="1.627"/>
	</g>
	<g>
		<rect x="115.337" y="115.248" style="fill:#494949;" width="1.627" height="11.953"/>
	</g>
	<g>
		<rect x="44.389" y="29.297" style="fill:#494949;" width="1.627" height="110.835"/>
	</g>
	<g>
		<rect x="47.643" y="29.297" style="fill:#494949;" width="1.627" height="110.835"/>
	</g>
	<g>
		<rect x="77.743" y="29.297" style="fill:#494949;" width="1.627" height="110.835"/>
	</g>
	<g>
		<rect x="80.998" y="29.297" style="fill:#494949;" width="1.627" height="110.835"/>
	</g>
	<g>
		<g>
			<rect x="97.687" y="29.297" style="fill:#494949;" width="1.627" height="75.342"/>
		</g>
		<g>
			<rect x="100.941" y="29.297" style="fill:#494949;" width="1.627" height="75.342"/>
		</g>
	</g>
	<g>
		<rect x="14.289" y="29.297" style="fill:#494949;" width="1.627" height="111.607"/>
	</g>
	<g>
		<rect x="22.946" y="112.062" style="fill:#494949;" width="14.731" height="1.627"/>
	</g>
	<g>
		<path style="fill:#494949;" d="M29.624,136.913h-11.24v-19.425h11.24V136.913z M20.01,135.286h7.986v-16.171H20.01V135.286z"/>
	</g>
	<g>
		<path style="fill:#494949;" d="M42.241,136.913h-11.24v-19.425h11.24V136.913z M32.628,135.286h7.986v-16.171h-7.986V135.286z"/>
	</g>
	<g>
		<rect x="19.197" y="114.503" style="fill:#494949;" width="22.231" height="1.627"/>
	</g>
	<g>
		<rect x="29.499" y="110.909" style="fill:#494949;" width="1.627" height="5.695"/>
	</g>
	<g>
		<g>
			<path style="fill:#494949;" d="M44.39,85.29c-0.164-0.876-5.339-2.583-14.237-2.583S16.08,84.414,15.916,85.29l-1.627-0.004
				c0-3.32,9.972-4.206,15.864-4.206s15.864,0.886,15.864,4.206h-1.627L44.39,85.29z"/>
		</g>
		<g>
			<path style="fill:#494949;" d="M29.624,108.117h-11.24V88.692h11.24V108.117z M20.01,106.49h7.986V90.319H20.01V106.49z"/>
		</g>
		<g>
			<path style="fill:#494949;" d="M42.241,108.117h-11.24V88.692h11.24V108.117z M32.628,106.49h7.986V90.319h-7.986V106.49z"/>
		</g>
		<g>
			<path style="fill:#494949;" d="M29.624,79.32h-11.24V59.895h11.24V79.32z M20.01,77.693h7.986V61.522H20.01V77.693z"/>
		</g>
		<g>
			<path style="fill:#494949;" d="M42.241,79.32h-11.24V59.895h11.24V79.32z M32.628,77.693h7.986V61.522h-7.986V77.693z"/>
		</g>
		<g>
			<path style="fill:#494949;" d="M29.624,51.337h-11.24V31.912h11.24V51.337z M20.01,49.71h7.986V33.539H20.01V49.71z"/>
		</g>
		<g>
			<path style="fill:#494949;" d="M42.241,51.337h-11.24V31.912h11.24V51.337z M32.628,49.71h7.986V33.539h-7.986V49.71z"/>
		</g>
		<g>
			<rect x="20.818" y="54.302" style="fill:#494949;" width="6.37" height="1.627"/>
		</g>
		<g>
			<rect x="19.197" y="56.743" style="fill:#494949;" width="9.613" height="1.627"/>
		</g>
		<g>
			<rect x="23.19" y="53.15" style="fill:#494949;" width="1.627" height="5.695"/>
		</g>
		<g>
			<rect x="33.021" y="54.302" style="fill:#494949;" width="6.37" height="1.627"/>
		</g>
		<g>
			<rect x="31.4" y="56.743" style="fill:#494949;" width="9.613" height="1.627"/>
		</g>
		<g>
			<rect x="35.393" y="53.15" style="fill:#494949;" width="1.627" height="5.695"/>
		</g>
		<g>
			<g>
				<rect x="29.339" y="81.894" style="fill:#494949;" width="1.627" height="3.392"/>
			</g>
			<g>
				
					<rect x="25.406" y="82.776" transform="matrix(0.0791 0.9969 -0.9969 0.0791 108.2878 49.9648)" style="fill:#494949;" width="3.392" height="1.627"/>
			</g>
			<g>
				
					<rect x="22.355" y="82.912" transform="matrix(0.1731 0.9849 -0.9849 0.1731 102.3476 45.5405)" style="fill:#494949;" width="3.392" height="1.627"/>
			</g>
			<g>
				
					<rect x="19.305" y="83.59" transform="matrix(0.2849 0.9585 -0.9585 0.2849 95.9214 40.2239)" style="fill:#494949;" width="3.391" height="1.627"/>
			</g>
			<g>
				
					<rect x="16.254" y="84.403" transform="matrix(0.3341 0.9425 -0.9425 0.3341 92.2743 39.8297)" style="fill:#494949;" width="3.392" height="1.627"/>
			</g>
			<g>
				
					<rect x="15.103" y="86.099" transform="matrix(0.7072 0.707 -0.707 0.7072 66.0813 14.2687)" style="fill:#494949;" width="1.424" height="1.627"/>
			</g>
		</g>
		<g>
			<g>
				<rect x="29.339" y="81.894" style="fill:#494949;" width="1.627" height="3.392"/>
			</g>
			<g>
				
					<rect x="32.39" y="81.894" transform="matrix(0.9969 0.0791 -0.0791 0.9969 6.7164 -2.3646)" style="fill:#494949;" width="1.627" height="3.392"/>
			</g>
			<g>
				
					<rect x="35.441" y="82.029" transform="matrix(0.9849 0.1729 -0.1729 0.9849 15.019 -5.0066)" style="fill:#494949;" width="1.627" height="3.392"/>
			</g>
			<g>
				
					<rect x="38.491" y="82.708" transform="matrix(0.9585 0.2851 -0.2851 0.9585 25.698 -7.7034)" style="fill:#494949;" width="1.627" height="3.391"/>
			</g>
			<g>
				
					<rect x="41.542" y="83.521" transform="matrix(0.9426 0.334 -0.334 0.9426 30.8955 -9.2531)" style="fill:#494949;" width="1.627" height="3.392"/>
			</g>
			<g>
				
					<rect x="43.677" y="86.201" transform="matrix(0.7071 0.7071 -0.7071 0.7071 74.4876 -6.0037)" style="fill:#494949;" width="1.627" height="1.424"/>
			</g>
		</g>
	</g>
	<g>
		<g>
			<path style="fill:#494949;" d="M130.623,85.29c-0.164-0.876-5.339-2.583-14.237-2.583c-7.377,0-12.361,1.146-13.87,2.21
				l-0.938-1.33c2.159-1.523,7.972-2.507,14.808-2.507c5.892,0,15.864,0.886,15.864,4.206h-1.627L130.623,85.29z"/>
		</g>
		<g>
			<path style="fill:#494949;" d="M115.857,108.117h-11.24V88.692h11.24V108.117z M106.243,106.49h7.986V90.319h-7.986V106.49z"/>
		</g>
		<g>
			<path style="fill:#494949;" d="M128.474,108.117h-11.24V88.692h11.24V108.117z M118.861,106.49h7.986V90.319h-7.986V106.49z"/>
		</g>
		<g>
			<path style="fill:#494949;" d="M115.857,79.32h-11.24V59.895h11.24V79.32z M106.243,77.693h7.986V61.522h-7.986V77.693z"/>
		</g>
		<g>
			<path style="fill:#494949;" d="M128.474,79.32h-11.24V59.895h11.24V79.32z M118.861,77.693h7.986V61.522h-7.986V77.693z"/>
		</g>
		<g>
			<path style="fill:#494949;" d="M115.857,51.337h-11.24V31.912h11.24V51.337z M106.243,49.71h7.986V33.539h-7.986V49.71z"/>
		</g>
		<g>
			<path style="fill:#494949;" d="M128.474,51.337h-11.24V31.912h11.24V51.337z M118.861,49.71h7.986V33.539h-7.986V49.71z"/>
		</g>
		<g>
			<rect x="107.051" y="54.302" style="fill:#494949;" width="6.37" height="1.627"/>
		</g>
		<g>
			<rect x="105.43" y="56.743" style="fill:#494949;" width="9.613" height="1.627"/>
		</g>
		<g>
			<rect x="109.423" y="53.15" style="fill:#494949;" width="1.627" height="5.695"/>
		</g>
		<g>
			<rect x="119.254" y="54.302" style="fill:#494949;" width="6.37" height="1.627"/>
		</g>
		<g>
			<rect x="117.633" y="56.743" style="fill:#494949;" width="9.613" height="1.627"/>
		</g>
		<g>
			<rect x="121.626" y="53.15" style="fill:#494949;" width="1.627" height="5.695"/>
		</g>
		<g>
			<g>
				<rect x="115.572" y="81.894" style="fill:#494949;" width="1.627" height="3.392"/>
			</g>
			<g>
				
					<rect x="111.639" y="82.776" transform="matrix(0.0791 0.9969 -0.9969 0.0791 187.7039 -35.9983)" style="fill:#494949;" width="3.392" height="1.627"/>
			</g>
			<g>
				
					<rect x="108.588" y="82.912" transform="matrix(0.1731 0.9849 -0.9849 0.1731 173.6496 -39.39)" style="fill:#494949;" width="3.392" height="1.627"/>
			</g>
			<g>
				
					<rect x="105.538" y="83.59" transform="matrix(0.2849 0.9585 -0.9585 0.2849 157.5836 -42.4345)" style="fill:#494949;" width="3.391" height="1.627"/>
			</g>
			<g>
				
					<rect x="102.487" y="84.403" transform="matrix(0.3341 0.9425 -0.9425 0.3341 149.6992 -41.449)" style="fill:#494949;" width="3.392" height="1.627"/>
			</g>
			<g>
				
					<rect x="101.336" y="86.099" transform="matrix(0.7072 0.707 -0.707 0.7072 91.3323 -46.7012)" style="fill:#494949;" width="1.424" height="1.627"/>
			</g>
		</g>
		<g>
			<g>
				<rect x="115.572" y="81.894" style="fill:#494949;" width="1.627" height="3.392"/>
			</g>
			<g>
				
					<rect x="118.623" y="81.894" transform="matrix(0.9969 0.0791 -0.0791 0.9969 6.9866 -9.186)" style="fill:#494949;" width="1.627" height="3.392"/>
			</g>
			<g>
				
					<rect x="121.674" y="82.029" transform="matrix(0.9849 0.1729 -0.1729 0.9849 16.3173 -19.9134)" style="fill:#494949;" width="1.627" height="3.392"/>
			</g>
			<g>
				
					<rect x="124.724" y="82.708" transform="matrix(0.9585 0.2851 -0.2851 0.9585 29.2778 -32.2914)" style="fill:#494949;" width="1.627" height="3.391"/>
			</g>
			<g>
				
					<rect x="127.775" y="83.521" transform="matrix(0.9426 0.334 -0.334 0.9426 35.8479 -38.0555)" style="fill:#494949;" width="1.627" height="3.392"/>
			</g>
			<g>
				
					<rect x="129.91" y="86.201" transform="matrix(0.7071 0.7071 -0.7071 0.7071 99.7447 -66.9796)" style="fill:#494949;" width="1.627" height="1.424"/>
			</g>
		</g>
	</g>
	<g>
		<g>
			<path style="fill:#494949;" d="M95.321,84.597c-3.465-0.331-7.446-0.349-10.97-0.053l-0.136-1.621
				c3.62-0.305,7.699-0.284,11.26,0.055L95.321,84.597z"/>
		</g>
		<g>
			<g>
				<rect x="88.726" y="83.521" style="fill:#494949;" width="1.627" height="3.392"/>
			</g>
			<g>
				
					<rect x="84.793" y="84.403" transform="matrix(0.0791 0.9969 -0.9969 0.0791 164.6019 -7.7378)" style="fill:#494949;" width="3.392" height="1.627"/>
			</g>
		</g>
		<g>
			<g>
				<rect x="88.726" y="83.521" style="fill:#494949;" width="1.627" height="3.392"/>
			</g>
			<g>
				
					<rect x="91.777" y="83.521" transform="matrix(0.9969 0.0791 -0.0791 0.9969 7.0312 -7.0573)" style="fill:#494949;" width="1.627" height="3.392"/>
			</g>
		</g>
		<g>
			<path style="fill:#494949;" d="M95.12,108.117h-11.24V88.692h11.24V108.117z M85.506,106.49h7.986V90.319h-7.986V106.49z"/>
		</g>
		<g>
			<path style="fill:#494949;" d="M95.12,79.32h-11.24V59.895h11.24V79.32z M85.506,77.693h7.986V61.522h-7.986V77.693z"/>
		</g>
		<g>
			<path style="fill:#494949;" d="M95.12,51.337h-11.24V31.912h11.24V51.337z M85.506,49.71h7.986V33.539h-7.986V49.71z"/>
		</g>
		<g>
			<path style="fill:#494949;" d="M95.12,136.913h-11.24v-19.425h11.24V136.913z M85.506,135.286h7.986v-16.171h-7.986V135.286z"/>
		</g>
		<g>
			<rect x="85.9" y="54.302" style="fill:#494949;" width="6.37" height="1.627"/>
		</g>
		<g>
			<rect x="84.278" y="56.743" style="fill:#494949;" width="9.613" height="1.627"/>
		</g>
		<g>
			<rect x="88.271" y="53.15" style="fill:#494949;" width="1.627" height="5.695"/>
		</g>
		<g>
			<rect x="85.9" y="112.062" style="fill:#494949;" width="6.37" height="1.627"/>
		</g>
		<g>
			<rect x="84.278" y="114.503" style="fill:#494949;" width="9.613" height="1.627"/>
		</g>
		<g>
			<rect x="88.271" y="110.909" style="fill:#494949;" width="1.627" height="5.695"/>
		</g>
	</g>
	<g>
		<g>
			<path style="fill:#494949;" d="M77.744,85.29c-0.164-0.876-5.339-2.583-14.237-2.583S49.434,84.414,49.27,85.29l-1.627-0.004
				c0-3.32,9.972-4.206,15.864-4.206s15.864,0.886,15.864,4.206h-1.627L77.744,85.29z"/>
		</g>
		<g>
			<path style="fill:#494949;" d="M62.978,108.117h-11.24V88.692h11.24V108.117z M53.365,106.49h7.986V90.319h-7.986V106.49z"/>
		</g>
		<g>
			<path style="fill:#494949;" d="M75.595,108.117h-11.24V88.692h11.24V108.117z M65.982,106.49h7.986V90.319h-7.986V106.49z"/>
		</g>
		<g>
			<path style="fill:#494949;" d="M62.978,79.32h-11.24V59.895h11.24V79.32z M53.365,77.693h7.986V61.522h-7.986V77.693z"/>
		</g>
		<g>
			<path style="fill:#494949;" d="M75.595,79.32h-11.24V59.895h11.24V79.32z M65.982,77.693h7.986V61.522h-7.986V77.693z"/>
		</g>
		<g>
			<path style="fill:#494949;" d="M62.978,51.337h-11.24V31.912h11.24V51.337z M53.365,49.71h7.986V33.539h-7.986V49.71z"/>
		</g>
		<g>
			<path style="fill:#494949;" d="M75.595,51.337h-11.24V31.912h11.24V51.337z M65.982,49.71h7.986V33.539h-7.986V49.71z"/>
		</g>
		<g>
			<rect x="56.301" y="112.062" style="fill:#494949;" width="14.731" height="1.627"/>
		</g>
		<g>
			<path style="fill:#494949;" d="M62.978,136.913h-11.24v-19.425h11.24V136.913z M53.365,135.286h7.986v-16.171h-7.986V135.286z"/>
		</g>
		<g>
			<path style="fill:#494949;" d="M75.595,136.913h-11.24v-19.425h11.24V136.913z M65.982,135.286h7.986v-16.171h-7.986V135.286z"/>
		</g>
		<g>
			<rect x="52.551" y="114.503" style="fill:#494949;" width="22.231" height="1.627"/>
		</g>
		<g>
			<rect x="62.853" y="110.909" style="fill:#494949;" width="1.627" height="5.695"/>
		</g>
		<g>
			<rect x="54.173" y="54.302" style="fill:#494949;" width="6.37" height="1.627"/>
		</g>
		<g>
			<rect x="52.551" y="56.743" style="fill:#494949;" width="9.613" height="1.627"/>
		</g>
		<g>
			<rect x="56.544" y="53.15" style="fill:#494949;" width="1.627" height="5.695"/>
		</g>
		<g>
			<rect x="66.375" y="54.302" style="fill:#494949;" width="6.37" height="1.627"/>
		</g>
		<g>
			<rect x="64.754" y="56.743" style="fill:#494949;" width="9.613" height="1.627"/>
		</g>
		<g>
			<rect x="68.747" y="53.15" style="fill:#494949;" width="1.627" height="5.695"/>
		</g>
		<g>
			<g>
				<rect x="62.693" y="81.894" style="fill:#494949;" width="1.627" height="3.392"/>
			</g>
			<g>
				
					<rect x="58.76" y="82.776" transform="matrix(0.0791 0.9969 -0.9969 0.0791 139.0053 16.7149)" style="fill:#494949;" width="3.392" height="1.627"/>
			</g>
			<g>
				
					<rect x="55.71" y="82.912" transform="matrix(0.1731 0.9849 -0.9849 0.1731 129.9266 12.69)" style="fill:#494949;" width="3.392" height="1.627"/>
			</g>
			<g>
				
					<rect x="52.659" y="83.59" transform="matrix(0.2849 0.9585 -0.9585 0.2849 119.7719 8.2523)" style="fill:#494949;" width="3.391" height="1.627"/>
			</g>
			<g>
				
					<rect x="49.608" y="84.403" transform="matrix(0.3341 0.9425 -0.9425 0.3341 114.4858 8.3917)" style="fill:#494949;" width="3.392" height="1.627"/>
			</g>
			<g>
				
					<rect x="48.457" y="86.099" transform="matrix(0.7072 0.707 -0.707 0.7072 75.8482 -9.314)" style="fill:#494949;" width="1.424" height="1.627"/>
			</g>
		</g>
		<g>
			<g>
				<rect x="62.693" y="81.894" style="fill:#494949;" width="1.627" height="3.392"/>
			</g>
			<g>
				
					<rect x="65.744" y="81.894" transform="matrix(0.9969 0.0791 -0.0791 0.9969 6.8209 -5.0031)" style="fill:#494949;" width="1.627" height="3.392"/>
			</g>
			<g>
				
					<rect x="68.795" y="82.029" transform="matrix(0.9849 0.1729 -0.1729 0.9849 15.5212 -10.7725)" style="fill:#494949;" width="1.627" height="3.392"/>
			</g>
			<g>
				
					<rect x="71.845" y="82.708" transform="matrix(0.9585 0.2851 -0.2851 0.9585 27.0827 -17.2138)" style="fill:#494949;" width="1.627" height="3.391"/>
			</g>
			<g>
				
					<rect x="74.896" y="83.521" transform="matrix(0.9426 0.334 -0.334 0.9426 32.8111 -20.3936)" style="fill:#494949;" width="1.627" height="3.392"/>
			</g>
			<g>
				
					<rect x="77.032" y="86.201" transform="matrix(0.7071 0.7071 -0.7071 0.7071 84.2569 -29.5887)" style="fill:#494949;" width="1.627" height="1.424"/>
			</g>
		</g>
	</g>
	<g>
		<rect x="12.766" y="28.483" style="fill:#494949;" width="208.396" height="1.627"/>
	</g>
	<g>
		<rect x="187.098" y="29.297" style="fill:#494949;" width="1.627" height="110.835"/>
	</g>
	<g>
		<rect x="183.844" y="29.297" style="fill:#494949;" width="1.627" height="110.835"/>
	</g>
	<g>
		<rect x="153.744" y="29.297" style="fill:#494949;" width="1.627" height="110.835"/>
	</g>
	<g>
		<rect x="150.49" y="29.297" style="fill:#494949;" width="1.627" height="110.835"/>
	</g>
	<g>
		<g>
			<rect x="133.8" y="29.297" style="fill:#494949;" width="1.627" height="75.342"/>
		</g>
		<g>
			<rect x="130.546" y="29.297" style="fill:#494949;" width="1.627" height="75.342"/>
		</g>
	</g>
	<g>
		<rect x="216.436" y="29.297" style="fill:#494949;" width="1.627" height="111.607"/>
	</g>
	<g>
		<rect x="195.436" y="112.062" style="fill:#494949;" width="14.731" height="1.627"/>
	</g>
	<g>
		<path style="fill:#494949;" d="M214.731,136.913h-11.24v-19.425h11.24V136.913z M205.118,135.286h7.986v-16.171h-7.986V135.286z"
			/>
	</g>
	<g>
		<path style="fill:#494949;" d="M202.114,136.913h-11.24v-19.425h11.24V136.913z M192.5,135.286h7.986v-16.171H192.5V135.286z"/>
	</g>
	<g>
		<rect x="191.687" y="114.503" style="fill:#494949;" width="22.231" height="1.627"/>
	</g>
	<g>
		<rect x="201.989" y="110.909" style="fill:#494949;" width="1.627" height="5.695"/>
	</g>
	<g>
		<g>
			<path style="fill:#494949;" d="M188.725,85.29l-1.627-0.004c0-3.32,9.972-4.206,15.864-4.206c5.892,0,15.864,0.886,15.864,4.206
				h-1.627c-0.164-0.872-5.338-2.579-14.237-2.579C194.063,82.707,188.889,84.414,188.725,85.29z"/>
		</g>
		<g>
			<path style="fill:#494949;" d="M214.731,108.117h-11.24V88.692h11.24V108.117z M205.118,106.49h7.986V90.319h-7.986V106.49z"/>
		</g>
		<g>
			<path style="fill:#494949;" d="M202.114,108.117h-11.24V88.692h11.24V108.117z M192.5,106.49h7.986V90.319H192.5V106.49z"/>
		</g>
		<g>
			<path style="fill:#494949;" d="M214.731,79.32h-11.24V59.895h11.24V79.32z M205.118,77.693h7.986V61.522h-7.986V77.693z"/>
		</g>
		<g>
			<path style="fill:#494949;" d="M202.114,79.32h-11.24V59.895h11.24V79.32z M192.5,77.693h7.986V61.522H192.5V77.693z"/>
		</g>
		<g>
			<path style="fill:#494949;" d="M214.731,51.337h-11.24V31.912h11.24V51.337z M205.118,49.71h7.986V33.539h-7.986V49.71z"/>
		</g>
		<g>
			<path style="fill:#494949;" d="M202.114,51.337h-11.24V31.912h11.24V51.337z M192.5,49.71h7.986V33.539H192.5V49.71z"/>
		</g>
		<g>
			<rect x="205.926" y="54.302" style="fill:#494949;" width="6.37" height="1.627"/>
		</g>
		<g>
			<rect x="204.304" y="56.743" style="fill:#494949;" width="9.613" height="1.627"/>
		</g>
		<g>
			<rect x="208.297" y="53.15" style="fill:#494949;" width="1.627" height="5.695"/>
		</g>
		<g>
			<rect x="193.723" y="54.302" style="fill:#494949;" width="6.37" height="1.627"/>
		</g>
		<g>
			<rect x="192.101" y="56.743" style="fill:#494949;" width="9.613" height="1.627"/>
		</g>
		<g>
			<rect x="196.094" y="53.15" style="fill:#494949;" width="1.627" height="5.695"/>
		</g>
		<g>
			<g>
				<rect x="202.148" y="81.894" style="fill:#494949;" width="1.627" height="3.392"/>
			</g>
			<g>
				
					<rect x="205.199" y="81.894" transform="matrix(0.9969 0.0791 -0.0791 0.9969 7.2579 -16.0346)" style="fill:#494949;" width="1.627" height="3.392"/>
			</g>
			<g>
				
					<rect x="208.249" y="82.029" transform="matrix(0.9849 0.1729 -0.1729 0.9849 17.6206 -34.8794)" style="fill:#494949;" width="1.627" height="3.392"/>
			</g>
			<g>
				
					<rect x="211.3" y="82.708" transform="matrix(0.9585 0.2851 -0.2851 0.9585 32.8694 -56.9742)" style="fill:#494949;" width="1.627" height="3.391"/>
			</g>
			<g>
				
					<rect x="214.351" y="83.521" transform="matrix(0.9426 0.334 -0.334 0.9426 40.8199 -66.9725)" style="fill:#494949;" width="1.627" height="3.392"/>
			</g>
			<g>
				
					<rect x="216.486" y="86.201" transform="matrix(0.7071 0.7071 -0.7071 0.7071 125.1021 -128.198)" style="fill:#494949;" width="1.627" height="1.424"/>
			</g>
		</g>
		<g>
			<g>
				<rect x="202.148" y="81.894" style="fill:#494949;" width="1.627" height="3.392"/>
			</g>
			<g>
				
					<rect x="198.215" y="82.776" transform="matrix(0.079 0.9969 -0.9969 0.079 267.4418 -122.3013)" style="fill:#494949;" width="3.392" height="1.627"/>
			</g>
			<g>
				
					<rect x="195.164" y="82.912" transform="matrix(0.1731 0.9849 -0.9849 0.1731 245.2351 -124.6583)" style="fill:#494949;" width="3.392" height="1.627"/>
			</g>
			<g>
				
					<rect x="192.114" y="83.59" transform="matrix(0.2849 0.9586 -0.9586 0.2849 219.5028 -125.42)" style="fill:#494949;" width="3.391" height="1.627"/>
			</g>
			<g>
				
					<rect x="189.063" y="84.403" transform="matrix(0.3341 0.9425 -0.9425 0.3341 207.3524 -123.0509)" style="fill:#494949;" width="3.392" height="1.627"/>
			</g>
			<g>
				
					<rect x="187.911" y="86.099" transform="matrix(0.7071 0.7071 -0.7071 0.7071 116.6934 -107.9171)" style="fill:#494949;" width="1.424" height="1.627"/>
			</g>
		</g>
	</g>
	<g>
		<g>
			<path style="fill:#494949;" d="M137.794,84.597l-0.154-1.619c3.561-0.339,7.64-0.359,11.26-0.055l-0.136,1.621
				C145.24,84.249,141.259,84.267,137.794,84.597z"/>
		</g>
		<g>
			<g>
				<rect x="142.761" y="83.521" style="fill:#494949;" width="1.627" height="3.392"/>
			</g>
			<g>
				
					<rect x="145.812" y="83.521" transform="matrix(0.9969 0.0791 -0.0791 0.9969 7.2005 -11.3317)" style="fill:#494949;" width="1.627" height="3.392"/>
			</g>
		</g>
		<g>
			<g>
				<rect x="142.761" y="83.521" style="fill:#494949;" width="1.627" height="3.392"/>
			</g>
			<g>
				
					<rect x="138.828" y="84.403" transform="matrix(0.079 0.9969 -0.9969 0.079 214.3698 -61.6016)" style="fill:#494949;" width="3.392" height="1.627"/>
			</g>
		</g>
		<g>
			<path style="fill:#494949;" d="M149.235,108.117h-11.24V88.692h11.24V108.117z M139.622,106.49h7.986V90.319h-7.986V106.49z"/>
		</g>
		<g>
			<path style="fill:#494949;" d="M149.235,79.32h-11.24V59.895h11.24V79.32z M139.622,77.693h7.986V61.522h-7.986V77.693z"/>
		</g>
		<g>
			<path style="fill:#494949;" d="M149.235,51.337h-11.24V31.912h11.24V51.337z M139.622,49.71h7.986V33.539h-7.986V49.71z"/>
		</g>
		<g>
			<path style="fill:#494949;" d="M149.235,136.913h-11.24v-19.425h11.24V136.913z M139.622,135.286h7.986v-16.171h-7.986V135.286z"
				/>
		</g>
		<g>
			<rect x="140.844" y="54.302" style="fill:#494949;" width="6.37" height="1.627"/>
		</g>
		<g>
			<rect x="139.223" y="56.743" style="fill:#494949;" width="9.613" height="1.627"/>
		</g>
		<g>
			<rect x="143.216" y="53.15" style="fill:#494949;" width="1.627" height="5.695"/>
		</g>
		<g>
			<rect x="140.844" y="112.062" style="fill:#494949;" width="6.37" height="1.627"/>
		</g>
		<g>
			<rect x="139.223" y="114.503" style="fill:#494949;" width="9.613" height="1.627"/>
		</g>
		<g>
			<rect x="143.216" y="110.909" style="fill:#494949;" width="1.627" height="5.695"/>
		</g>
	</g>
	<g>
		<g>
			<path style="fill:#494949;" d="M155.37,85.29l-1.627-0.004c0-3.32,9.972-4.206,15.864-4.206c5.892,0,15.864,0.886,15.864,4.206
				h-1.627c-0.164-0.872-5.338-2.579-14.237-2.579C160.709,82.707,155.535,84.414,155.37,85.29z"/>
		</g>
		<g>
			<path style="fill:#494949;" d="M181.377,108.117h-11.24V88.692h11.24V108.117z M171.763,106.49h7.986V90.319h-7.986V106.49z"/>
		</g>
		<g>
			<path style="fill:#494949;" d="M168.759,108.117h-11.24V88.692h11.24V108.117z M159.146,106.49h7.986V90.319h-7.986V106.49z"/>
		</g>
		<g>
			<path style="fill:#494949;" d="M181.377,79.32h-11.24V59.895h11.24V79.32z M171.763,77.693h7.986V61.522h-7.986V77.693z"/>
		</g>
		<g>
			<path style="fill:#494949;" d="M168.759,79.32h-11.24V59.895h11.24V79.32z M159.146,77.693h7.986V61.522h-7.986V77.693z"/>
		</g>
		<g>
			<path style="fill:#494949;" d="M181.377,51.337h-11.24V31.912h11.24V51.337z M171.763,49.71h7.986V33.539h-7.986V49.71z"/>
		</g>
		<g>
			<path style="fill:#494949;" d="M168.759,51.337h-11.24V31.912h11.24V51.337z M159.146,49.71h7.986V33.539h-7.986V49.71z"/>
		</g>
		<g>
			<rect x="162.082" y="112.062" style="fill:#494949;" width="14.731" height="1.627"/>
		</g>
		<g>
			<path style="fill:#494949;" d="M181.377,136.913h-11.24v-19.425h11.24V136.913z M171.763,135.286h7.986v-16.171h-7.986V135.286z"
				/>
		</g>
		<g>
			<path style="fill:#494949;" d="M168.759,136.913h-11.24v-19.425h11.24V136.913z M159.146,135.286h7.986v-16.171h-7.986V135.286z"
				/>
		</g>
		<g>
			<rect x="158.333" y="114.503" style="fill:#494949;" width="22.231" height="1.627"/>
		</g>
		<g>
			<rect x="168.634" y="110.909" style="fill:#494949;" width="1.627" height="5.695"/>
		</g>
		<g>
			<rect x="172.571" y="54.302" style="fill:#494949;" width="6.37" height="1.627"/>
		</g>
		<g>
			<rect x="170.95" y="56.743" style="fill:#494949;" width="9.613" height="1.627"/>
		</g>
		<g>
			<rect x="174.943" y="53.15" style="fill:#494949;" width="1.627" height="5.695"/>
		</g>
		<g>
			<rect x="160.369" y="54.302" style="fill:#494949;" width="6.37" height="1.627"/>
		</g>
		<g>
			<rect x="158.747" y="56.743" style="fill:#494949;" width="9.613" height="1.627"/>
		</g>
		<g>
			<rect x="162.74" y="53.15" style="fill:#494949;" width="1.627" height="5.695"/>
		</g>
		<g>
			<g>
				<rect x="168.794" y="81.894" style="fill:#494949;" width="1.627" height="3.392"/>
			</g>
			<g>
				
					<rect x="171.844" y="81.894" transform="matrix(0.9969 0.0791 -0.0791 0.9969 7.1534 -13.3961)" style="fill:#494949;" width="1.627" height="3.392"/>
			</g>
			<g>
				
					<rect x="174.895" y="82.029" transform="matrix(0.9849 0.1729 -0.1729 0.9849 17.1185 -29.1136)" style="fill:#494949;" width="1.627" height="3.392"/>
			</g>
			<g>
				
					<rect x="177.946" y="82.708" transform="matrix(0.9585 0.2851 -0.2851 0.9585 31.4849 -47.4642)" style="fill:#494949;" width="1.627" height="3.391"/>
			</g>
			<g>
				
					<rect x="180.997" y="83.521" transform="matrix(0.9426 0.334 -0.334 0.9426 38.9044 -55.832)" style="fill:#494949;" width="1.627" height="3.392"/>
			</g>
			<g>
				
					<rect x="183.132" y="86.201" transform="matrix(0.7071 0.7071 -0.7071 0.7071 115.3329 -104.613)" style="fill:#494949;" width="1.627" height="1.424"/>
			</g>
		</g>
		<g>
			<g>
				<rect x="168.794" y="81.894" style="fill:#494949;" width="1.627" height="3.392"/>
			</g>
			<g>
				
					<rect x="164.861" y="82.776" transform="matrix(0.079 0.9969 -0.9969 0.079 236.7233 -89.0513)" style="fill:#494949;" width="3.392" height="1.627"/>
			</g>
			<g>
				
					<rect x="161.81" y="82.912" transform="matrix(0.1731 0.9849 -0.9849 0.1731 217.656 -91.8078)" style="fill:#494949;" width="3.392" height="1.627"/>
			</g>
			<g>
				
					<rect x="158.759" y="83.59" transform="matrix(0.2849 0.9586 -0.9586 0.2849 195.6505 -93.4479)" style="fill:#494949;" width="3.391" height="1.627"/>
			</g>
			<g>
				
					<rect x="155.709" y="84.403" transform="matrix(0.3341 0.9425 -0.9425 0.3341 185.1409 -91.6129)" style="fill:#494949;" width="3.392" height="1.627"/>
			</g>
			<g>
				
					<rect x="154.557" y="86.099" transform="matrix(0.7071 0.7071 -0.7071 0.7071 106.9253 -84.3332)" style="fill:#494949;" width="1.424" height="1.627"/>
			</g>
		</g>
	</g>
	<g>
		<path style="fill:#F3F3F3;" d="M124.656,110.571c0-2.378-3.855-4.305-8.61-4.305s-8.61,1.927-8.61,4.305"/>
		<path style="fill:#494949;" d="M125.47,110.57h-1.627c0-1.651-3.202-3.491-7.796-3.491s-7.796,1.84-7.796,3.491h-1.627
			c0-2.87,4.139-5.118,9.423-5.118C121.331,105.452,125.47,107.701,125.47,110.57z"/>
	</g>
	<g>
		<rect x="14.497" y="22.145" style="fill:#494949;" width="1.627" height="3.256"/>
	</g>
	<g>
		<rect x="20.843" y="22.145" style="fill:#494949;" width="1.627" height="3.256"/>
	</g>
	<g>
		<rect x="27.188" y="22.145" style="fill:#494949;" width="1.627" height="3.256"/>
	</g>
	<g>
		<rect x="33.534" y="22.145" style="fill:#494949;" width="1.627" height="3.256"/>
	</g>
	<g>
		<rect x="39.879" y="22.145" style="fill:#494949;" width="1.627" height="3.256"/>
	</g>
	<g>
		<rect x="46.225" y="22.145" style="fill:#494949;" width="1.627" height="3.256"/>
	</g>
	<g>
		<rect x="46.225" y="22.145" style="fill:#494949;" width="1.627" height="3.256"/>
	</g>
	<g>
		<rect x="52.57" y="22.145" style="fill:#494949;" width="1.627" height="3.256"/>
	</g>
	<g>
		<rect x="58.916" y="22.145" style="fill:#494949;" width="1.627" height="3.256"/>
	</g>
	<g>
		<rect x="65.261" y="22.145" style="fill:#494949;" width="1.627" height="3.256"/>
	</g>
	<g>
		<rect x="71.607" y="22.145" style="fill:#494949;" width="1.627" height="3.256"/>
	</g>
	<g>
		<rect x="77.952" y="22.145" style="fill:#494949;" width="1.627" height="3.256"/>
	</g>
	<g>
		<rect x="77.952" y="22.145" style="fill:#494949;" width="1.627" height="3.256"/>
	</g>
	<g>
		<rect x="84.297" y="22.145" style="fill:#494949;" width="1.627" height="3.256"/>
	</g>
	<g>
		<rect x="90.643" y="22.145" style="fill:#494949;" width="1.627" height="3.256"/>
	</g>
	<g>
		<rect x="96.988" y="22.145" style="fill:#494949;" width="1.627" height="3.256"/>
	</g>
	<g>
		<rect x="103.334" y="22.145" style="fill:#494949;" width="1.627" height="3.256"/>
	</g>
	<g>
		<rect x="109.679" y="22.145" style="fill:#494949;" width="1.627" height="3.256"/>
	</g>
	<g>
		<rect x="109.679" y="22.145" style="fill:#494949;" width="1.627" height="3.256"/>
	</g>
	<g>
		<rect x="116.025" y="22.145" style="fill:#494949;" width="1.627" height="3.256"/>
	</g>
	<g>
		<rect x="122.37" y="22.145" style="fill:#494949;" width="1.627" height="3.256"/>
	</g>
	<g>
		<rect x="128.716" y="22.145" style="fill:#494949;" width="1.627" height="3.256"/>
	</g>
	<g>
		<rect x="135.061" y="22.145" style="fill:#494949;" width="1.627" height="3.256"/>
	</g>
	<g>
		<rect x="141.406" y="22.145" style="fill:#494949;" width="1.627" height="3.256"/>
	</g>
	<g>
		<rect x="141.406" y="22.145" style="fill:#494949;" width="1.627" height="3.256"/>
	</g>
	<g>
		<rect x="147.752" y="22.145" style="fill:#494949;" width="1.627" height="3.256"/>
	</g>
	<g>
		<rect x="154.097" y="22.145" style="fill:#494949;" width="1.627" height="3.256"/>
	</g>
	<g>
		<rect x="160.443" y="22.145" style="fill:#494949;" width="1.627" height="3.256"/>
	</g>
	<g>
		<rect x="166.788" y="22.145" style="fill:#494949;" width="1.627" height="3.256"/>
	</g>
	<g>
		<rect x="173.134" y="22.145" style="fill:#494949;" width="1.627" height="3.256"/>
	</g>
	<g>
		<rect x="173.134" y="22.145" style="fill:#494949;" width="1.627" height="3.256"/>
	</g>
	<g>
		<rect x="179.479" y="22.145" style="fill:#494949;" width="1.627" height="3.256"/>
	</g>
	<g>
		<rect x="185.825" y="22.145" style="fill:#494949;" width="1.627" height="3.256"/>
	</g>
	<g>
		<rect x="192.17" y="22.145" style="fill:#494949;" width="1.627" height="3.256"/>
	</g>
	<g>
		<rect x="198.515" y="22.145" style="fill:#494949;" width="1.627" height="3.256"/>
	</g>
	<g>
		<rect x="204.861" y="22.145" style="fill:#494949;" width="1.627" height="3.256"/>
	</g>
	<g>
		<rect x="211.054" y="22.145" style="fill:#494949;" width="1.627" height="3.256"/>
	</g>
	<g>
		<rect x="217.4" y="22.145" style="fill:#494949;" width="1.627" height="3.256"/>
	</g>
	<g>
		<rect x="115.337" y="0" style="fill:#494949;" width="1.627" height="11.447"/>
	</g>
	<g>
		<polygon style="fill:#494949;" points="125.415,6.793 116.15,6.793 116.15,5.166 121.487,5.166 120.116,3.796 121.743,2.169 
			116.15,2.169 116.15,0.542 125.671,0.542 122.417,3.796 		"/>
	</g>
</g>
</svg>
